<svg width="47" height="35" viewBox="0 0 47 35" fill="none" xmlns="http://www.w3.org/2000/svg">
<path d="M45.1923 0H1.80769C1.32826 0 0.868469 0.184375 0.529461 0.512563C0.190453 0.840752 0 1.28587 0 1.75V31.5C0 32.4283 0.380905 33.3185 1.05892 33.9749C1.73694 34.6312 2.65652 35 3.61538 35H43.3846C44.3435 35 45.2631 34.6312 45.9411 33.9749C46.6191 33.3185 47 32.4283 47 31.5V1.75C47 1.28587 46.8095 0.840752 46.4705 0.512563C46.1315 0.184375 45.6717 0 45.1923 0ZM23.5 18.6266L6.45572 3.5H40.5443L23.5 18.6266ZM16.8816 17.5L3.61538 29.2709V5.72906L16.8816 17.5ZM19.557 19.8734L22.2685 22.2906C22.602 22.587 23.0382 22.7514 23.491 22.7514C23.9437 22.7514 24.3799 22.587 24.7134 22.2906L27.4249 19.8734L40.5307 31.5H6.45572L19.557 19.8734ZM30.1184 17.5L43.3846 5.72688V29.2731L30.1184 17.5Z" fill="#A2A2A2"/>
</svg>
