<svg width="45" height="47" viewBox="0 0 45 47" fill="none" xmlns="http://www.w3.org/2000/svg">
<path d="M41.5385 0H3.46154C2.54348 0 1.66303 0.380905 1.01386 1.05892C0.364697 1.73694 0 2.65652 0 3.61538V43.3846C0 44.3435 0.364697 45.2631 1.01386 45.9411C1.66303 46.6191 2.54348 47 3.46154 47H41.5385C42.4565 47 43.337 46.6191 43.9861 45.9411C44.6353 45.2631 45 44.3435 45 43.3846V3.61538C45 2.65652 44.6353 1.73694 43.9861 1.05892C43.337 0.380905 42.4565 0 41.5385 0ZM41.5385 43.3846H3.46154V3.61538H41.5385V43.3846ZM15.5769 19.8846V34.3462C15.5769 34.8256 15.3946 35.2854 15.07 35.6244C14.7454 35.9634 14.3052 36.1538 13.8462 36.1538C13.3871 36.1538 12.9469 35.9634 12.6223 35.6244C12.2977 35.2854 12.1154 34.8256 12.1154 34.3462V19.8846C12.1154 19.4052 12.2977 18.9454 12.6223 18.6064C12.9469 18.2674 13.3871 18.0769 13.8462 18.0769C14.3052 18.0769 14.7454 18.2674 15.07 18.6064C15.3946 18.9454 15.5769 19.4052 15.5769 19.8846ZM34.6154 26.2115V34.3462C34.6154 34.8256 34.433 35.2854 34.1085 35.6244C33.7839 35.9634 33.3436 36.1538 32.8846 36.1538C32.4256 36.1538 31.9854 35.9634 31.6608 35.6244C31.3362 35.2854 31.1538 34.8256 31.1538 34.3462V26.2115C31.1538 25.013 30.698 23.8635 29.8865 23.016C29.0751 22.1684 27.9745 21.6923 26.8269 21.6923C25.6794 21.6923 24.5788 22.1684 23.7673 23.016C22.9559 23.8635 22.5 25.013 22.5 26.2115V34.3462C22.5 34.8256 22.3177 35.2854 21.9931 35.6244C21.6685 35.9634 21.2283 36.1538 20.7692 36.1538C20.3102 36.1538 19.87 35.9634 19.5454 35.6244C19.2208 35.2854 19.0385 34.8256 19.0385 34.3462V19.8846C19.0406 19.4418 19.1983 19.0153 19.4816 18.6859C19.7649 18.3564 20.154 18.1471 20.5753 18.0975C20.9966 18.0479 21.4207 18.1615 21.7671 18.4168C22.1135 18.672 22.3581 19.0512 22.4546 19.4824C23.6254 18.6528 24.9905 18.172 26.4032 18.0917C27.8159 18.0113 29.2229 18.3343 30.4731 19.0261C31.7233 19.7179 32.7695 20.7523 33.4993 22.0182C34.2291 23.2842 34.6149 24.7338 34.6154 26.2115ZM16.4423 13.5577C16.4423 14.094 16.29 14.6182 16.0048 15.0641C15.7195 15.5101 15.314 15.8576 14.8397 16.0628C14.3653 16.2681 13.8433 16.3218 13.3397 16.2171C12.8361 16.1125 12.3735 15.8543 12.0104 15.475C11.6473 15.0958 11.4001 14.6127 11.2999 14.0867C11.1997 13.5607 11.2511 13.0155 11.4476 12.52C11.6441 12.0246 11.9769 11.6011 12.4038 11.3031C12.8307 11.0052 13.3327 10.8462 13.8462 10.8462C14.5347 10.8462 15.195 11.1318 15.6819 11.6403C16.1688 12.1489 16.4423 12.8385 16.4423 13.5577Z" fill="#A2A2A2"/>
</svg>
