<svg width="39" height="43" viewBox="0 0 39 43" fill="none" xmlns="http://www.w3.org/2000/svg">
<path d="M38.7237 40.2222L24.857 18.2031L38.5398 2.99468C38.8493 2.64222 39.0087 2.18072 38.9837 1.71024C38.9586 1.23976 38.7511 0.798212 38.406 0.481332C38.0609 0.164453 37.6061 -0.00221991 37.1402 0.0174484C36.6743 0.0371167 36.2348 0.241541 35.9171 0.586401L22.8833 15.0719L13.9142 0.830362C13.7543 0.576004 13.5334 0.366547 13.272 0.221395C13.0107 0.0762437 12.7173 9.33995e-05 12.419 2.11809e-07H1.78639C1.46866 -0.000155919 1.15672 0.086007 0.883257 0.249466C0.60979 0.412926 0.384849 0.647669 0.231987 0.929115C0.0791249 1.21056 0.00396633 1.52836 0.0143804 1.84923C0.0247944 2.17009 0.120398 2.48223 0.291181 2.75295L14.1579 24.7699L0.475037 39.9894C0.315253 40.1629 0.191124 40.3666 0.109846 40.5889C0.0285674 40.8111 -0.00824443 41.0475 0.00154474 41.2842C0.0113339 41.5209 0.0675296 41.7534 0.166873 41.968C0.266217 42.1826 0.406733 42.3752 0.580278 42.5346C0.753823 42.6939 0.956946 42.8169 1.17787 42.8963C1.3988 42.9758 1.63314 43.0101 1.8673 42.9974C2.10147 42.9847 2.3308 42.9251 2.54202 42.8222C2.75323 42.7192 2.94212 42.575 3.09775 42.3977L16.1316 27.9123L25.1006 42.1538C25.2619 42.406 25.4833 42.6133 25.7446 42.7564C26.0059 42.8996 26.2986 42.974 26.5958 42.9729H37.2284C37.5458 42.9728 37.8574 42.8866 38.1305 42.7232C38.4036 42.5599 38.6284 42.3254 38.7811 42.0443C38.9339 41.7633 39.0092 41.4459 38.9991 41.1253C38.989 40.8048 38.8939 40.4929 38.7237 40.2222ZM27.5683 39.3918L5.01383 3.58108H11.4377L34.001 39.3918H27.5683Z" fill="#A2A2A2"/>
</svg>
