<svg width="29" height="24" viewBox="0 0 29 24" fill="none" xmlns="http://www.w3.org/2000/svg">
<path d="M10.993 23.3115L0.347394 12.6659C0.237419 12.5561 0.150173 12.4256 0.0906462 12.282C0.0311217 12.1385 0.000483943 11.9845 0.000483949 11.8291C0.000483956 11.6736 0.0311217 11.5197 0.0906462 11.3761C0.150173 11.2325 0.237419 11.1021 0.347394 10.9922L10.993 0.346638C11.2149 0.124689 11.516 -7.37572e-07 11.8298 -7.23852e-07C12.1437 -7.10132e-07 12.4448 0.124689 12.6667 0.346639C12.8887 0.568588 13.0133 0.869616 13.0133 1.1835C13.0133 1.49738 12.8887 1.79841 12.6667 2.02036L4.03934 10.6462L27.2068 10.6462C27.5205 10.6462 27.8214 10.7709 28.0432 10.9927C28.265 11.2145 28.3896 11.5154 28.3896 11.8291C28.3896 12.1428 28.265 12.4437 28.0432 12.6655C27.8214 12.8873 27.5205 13.0119 27.2068 13.0119L4.03934 13.0119L12.6667 21.6378C12.8887 21.8598 13.0133 22.1608 13.0133 22.4747C13.0133 22.7886 12.8887 23.0896 12.6667 23.3115C12.4448 23.5335 12.1437 23.6582 11.8298 23.6582C11.516 23.6582 11.2149 23.5335 10.993 23.3115Z" fill="#202020"/>
</svg>
