<svg width="28" height="24" viewBox="260 18 30 24" fill="none" xmlns="http://www.w3.org/2000/svg">
<path d="M271.798 41.3116L261.153 30.666C261.043 30.5561 260.955 30.4257 260.896 30.2821C260.836 30.1385 260.806 29.9846 260.806 29.8291C260.806 29.6737 260.836 29.5197 260.896 29.3762C260.955 29.2326 261.043 29.1021 261.153 28.9922L271.798 18.3467C272.02 18.1247 272.321 18 272.635 18C272.949 18 273.25 18.1247 273.472 18.3467C273.694 18.5686 273.819 18.8696 273.819 19.1835C273.819 19.4974 273.694 19.7984 273.472 20.0204L264.845 28.6463L288.012 28.6463C288.326 28.6463 288.627 28.7709 288.848 28.9927C289.07 29.2145 289.195 29.5154 289.195 29.8291C289.195 30.1428 289.07 30.4437 288.848 30.6655C288.627 30.8873 288.326 31.012 288.012 31.012L264.845 31.012L273.472 39.6378C273.694 39.8598 273.819 40.1608 273.819 40.4747C273.819 40.7886 273.694 41.0896 273.472 41.3116C273.25 41.5335 272.949 41.6582 272.635 41.6582C272.321 41.6582 272.02 41.5335 271.798 41.3116Z" fill="#202020"/>
</svg>
