<svg width="32" height="25" viewBox="0 0 32 25" fill="none" xmlns="http://www.w3.org/2000/svg">
<g filter="url(#filter0_d_56_665)">
<path d="M13.1413 8.92724C13.1004 8.48233 12.9207 8.13557 12.6019 7.88685C12.2833 7.63824 11.8296 7.51382 11.2407 7.51382C10.8509 7.51382 10.526 7.56454 10.266 7.66576C10.0062 7.76675 9.81131 7.90527 9.68136 8.0811C9.55164 8.25704 9.48461 8.45811 9.48039 8.68431C9.47239 8.8706 9.51007 9.03448 9.5932 9.17608C9.67633 9.31744 9.79806 9.44175 9.95861 9.54911C10.119 9.65624 10.3128 9.75018 10.5401 9.83115C10.7675 9.9119 11.0234 9.98253 11.3079 10.0431L12.3799 10.2861C12.9971 10.4196 13.5421 10.5976 14.0151 10.8201C14.4883 11.0425 14.8862 11.3074 15.209 11.6149C15.5317 11.9222 15.7763 12.2759 15.9426 12.6762C16.1091 13.0765 16.1945 13.5254 16.1988 14.0227C16.1945 14.8073 15.9953 15.4807 15.6014 16.043C15.2077 16.6051 14.6423 17.0356 13.9054 17.335C13.1685 17.6343 12.2803 17.784 11.2407 17.784C10.1972 17.784 9.28763 17.6282 8.51206 17.3168C7.73649 17.0054 7.13334 16.5323 6.70285 15.8974C6.27259 15.2624 6.05129 14.4597 6.03918 13.4891H8.92634C8.95066 13.8894 9.05811 14.2231 9.24881 14.4899C9.43973 14.7569 9.7026 14.9592 10.0376 15.0968C10.3729 15.2342 10.7617 15.3029 11.2042 15.3029C11.6104 15.3029 11.9566 15.2483 12.2428 15.1391C12.529 15.0299 12.7492 14.8783 12.9033 14.6842C13.0577 14.4902 13.1369 14.2677 13.1413 14.0168C13.1369 13.7821 13.0638 13.5809 12.9216 13.4132C12.7797 13.2455 12.5614 13.0999 12.2671 12.9764C11.9726 12.853 11.598 12.7387 11.1434 12.6334L9.83985 12.3305C8.75974 12.0837 7.90914 11.6842 7.28796 11.1322C6.66677 10.5803 6.35811 9.8332 6.36211 8.89084C6.35811 8.12238 6.56514 7.44899 6.9833 6.87057C7.40169 6.29226 7.98017 5.84144 8.71897 5.51811C9.458 5.19455 10.3005 5.03271 11.2467 5.03271C12.2132 5.03271 13.0527 5.19557 13.7652 5.52129C14.478 5.84678 15.0313 6.30272 15.4251 6.88922C15.819 7.47549 16.02 8.15479 16.028 8.92724H13.1413Z" fill="white"/>
<path d="M20.0894 15.6824H25.2739V17.784H20.0894V15.6824Z" fill="white"/>
</g>
<defs>
<filter id="filter0_d_56_665" x="4.00543e-05" y="9.44138e-05" width="31.313" height="24.8295" filterUnits="userSpaceOnUse" color-interpolation-filters="sRGB">
<feFlood flood-opacity="0" result="BackgroundImageFix"/>
<feColorMatrix in="SourceAlpha" type="matrix" values="0 0 0 0 0 0 0 0 0 0 0 0 0 0 0 0 0 0 127 0" result="hardAlpha"/>
<feOffset dy="1.00652"/>
<feGaussianBlur stdDeviation="3.01957"/>
<feComposite in2="hardAlpha" operator="out"/>
<feColorMatrix type="matrix" values="0 0 0 0 0 0 0 0 0 0 0 0 0 0 0 0 0 0 0.1 0"/>
<feBlend mode="normal" in2="BackgroundImageFix" result="effect1_dropShadow_56_665"/>
<feBlend mode="normal" in="SourceGraphic" in2="effect1_dropShadow_56_665" result="shape"/>
</filter>
</defs>
</svg>
