<svg width="29" height="24" viewBox="0 0 29 24" fill="none" xmlns="http://www.w3.org/2000/svg">
<path d="M17.3967 0.346666L28.0423 10.9923C28.1522 11.1021 28.2395 11.2326 28.299 11.3762C28.3585 11.5198 28.3892 11.6737 28.3892 11.8291C28.3892 11.9846 28.3585 12.1385 28.299 12.2821C28.2395 12.4257 28.1522 12.5561 28.0423 12.666L17.3967 23.3116C17.1747 23.5335 16.8737 23.6582 16.5598 23.6582C16.2459 23.6582 15.9449 23.5335 15.7229 23.3116C15.501 23.0896 15.3763 22.7886 15.3763 22.4747C15.3763 22.1608 15.501 21.8598 15.7229 21.6378L24.3503 13.012L1.18284 13.012C0.869133 13.012 0.568273 12.8873 0.346446 12.6655C0.12462 12.4437 -5.03353e-07 12.1428 -5.17066e-07 11.8291C-5.30778e-07 11.5154 0.12462 11.2145 0.346446 10.9927C0.568273 10.7709 0.869133 10.6463 1.18284 10.6463L24.3503 10.6463L15.7229 2.02039C15.501 1.79844 15.3763 1.49741 15.3763 1.18353C15.3763 0.869642 15.501 0.568614 15.7229 0.346666C15.9449 0.124715 16.2459 2.40854e-05 16.5598 2.40717e-05C16.8737 2.4058e-05 17.1747 0.124715 17.3967 0.346666Z" fill="white"/>
</svg>
