<svg width="55" height="55" viewBox="0 0 55 55" fill="none" xmlns="http://www.w3.org/2000/svg">
<rect width="55" height="55" rx="10" fill="#202020"/>
<path d="M30.7021 16.0176L41.3477 26.6631C41.4576 26.773 41.5449 26.9035 41.6044 27.0471C41.6639 27.1906 41.6946 27.3446 41.6946 27.5C41.6946 27.6555 41.6639 27.8094 41.6044 27.953C41.5449 28.0966 41.4576 28.227 41.3477 28.3369L30.7021 38.9825C30.4801 39.2044 30.1791 39.3291 29.8652 39.3291C29.5513 39.3291 29.2503 39.2044 29.0284 38.9825C28.8064 38.7605 28.6817 38.4595 28.6817 38.1456C28.6817 37.8317 28.8064 37.5307 29.0284 37.3087L37.6557 28.6829L14.4883 28.6829C14.1746 28.6829 13.8737 28.5582 13.6519 28.3364C13.43 28.1146 13.3054 27.8137 13.3054 27.5C13.3054 27.1863 13.43 26.8854 13.6519 26.6636C13.8737 26.4418 14.1746 26.3172 14.4883 26.3172L37.6557 26.3172L29.0284 17.6913C28.8064 17.4693 28.6817 17.1683 28.6817 16.8544C28.6817 16.5405 28.8064 16.2395 29.0284 16.0176C29.2503 15.7956 29.5513 15.6709 29.8652 15.6709C30.1791 15.6709 30.4801 15.7956 30.7021 16.0176Z" fill="white"/>
</svg>
