<svg width="368" height="368" viewBox="0 0 368 368" fill="none" xmlns="http://www.w3.org/2000/svg">
<rect width="368" height="368" rx="32" fill="white" fill-opacity="0.18"/>
<path d="M216 184C216 184.707 215.719 185.386 215.219 185.886C214.719 186.386 214.041 186.667 213.333 186.667H186.667V213.333C186.667 214.041 186.386 214.719 185.886 215.219C185.386 215.719 184.707 216 184 216C183.293 216 182.614 215.719 182.114 215.219C181.614 214.719 181.333 214.041 181.333 213.333V186.667H154.667C153.959 186.667 153.281 186.386 152.781 185.886C152.281 185.386 152 184.707 152 184C152 183.293 152.281 182.614 152.781 182.114C153.281 181.614 153.959 181.333 154.667 181.333H181.333V154.667C181.333 153.959 181.614 153.281 182.114 152.781C182.614 152.281 183.293 152 184 152C184.707 152 185.386 152.281 185.886 152.781C186.386 153.281 186.667 153.959 186.667 154.667V181.333H213.333C214.041 181.333 214.719 181.614 215.219 182.114C215.719 182.614 216 183.293 216 184Z" fill="#909090"/>
</svg>
